<svg width="48" height="48" xmlns="http://www.w3.org/2000/svg">
 <title/>

 <desc/>
 <g>
  <title>background</title>
  <rect fill="none" id="canvas_background" height="402" width="582" y="-1" x="-1"/>
 </g>
 <g>
  <title>Layer 1</title>
  <path id="list2" fill="#fcfcfc" d="m10,11c-1.105,0 -2,0.896 -2,2.001l0,1.999c0,1.105 0.895,2.001 2,2.001l28,0c1.105,0 2,-0.896 2,-2.001l0,-1.999c0,-1.105 -0.895,-2.001 -2,-2.001l-28,0zm0,9c-1.105,0 -2,0.895 -2,2l0,2c0,1.106 0.895,2 2,2l28,0c1.105,0 2,-0.894 2,-2l0,-2c0,-1.105 -0.895,-2 -2,-2l-28,0zm0,8.999c-1.105,0 -2,0.896 -2,2.001l0,1.999c0,1.105 0.895,2.001 2,2.001l28,0c1.105,0 2,-0.896 2,-2.001l0,-1.999c0,-1.105 -0.895,-2.001 -2,-2.001l-28,0z"/>
 </g>
</svg>