<?xml version="1.0" encoding="UTF-8" standalone="no"?><!-- Generator: Gravit.io --><svg xmlns="http://www.w3.org/2000/svg" xmlns:xlink="http://www.w3.org/1999/xlink" style="isolation:isolate" viewBox="0 0 2000 2000" width="2000pt" height="2000pt"><defs><clipPath id="_clipPath_NCN0VzB9ZAJACMIdkdGy6G4uY0TXKheC"><rect width="2000" height="2000"/></clipPath></defs><g clip-path="url(#_clipPath_NCN0VzB9ZAJACMIdkdGy6G4uY0TXKheC)"><rect width="2000" height="2000" style="fill:rgb(0,0,0)" fill-opacity="0"/><path d=" M 1302 55.1 L 425 55.1 L 399 55.1 L 51 55.1 L 51 55.1 L 51 319.1 L 51 829.1 L 51 829.1 L 51 829.1 L 51 829.1 L 51 1099.1 L 51 1678.1 L 51 1678.1 L 51 1678.1 L 51 1948.1 L 399 1948.1 L 1005.021 1948.1 L 1005.021 1948.1 L 1067.287 1578.1 L 1502.513 1578.1 L 1579.138 1948.239 L 1582.652 1947.511 L 1582.652 1947.511 L 1582.652 1948.1 L 1886 1948.239 L 1871.157 1887.785 L 1871.904 1887.631 L 1492.299 55.1 L 1492.299 55.1 L 1492.299 55.1 L 1492.299 55.1 L 1302 55.1 Z  M 977.297 319.1 L 977.297 319.1 L 891.047 829.1 L 399 829.1 L 399 319.1 L 425 319.1 L 977.297 319.1 Z  M 1450.137 1325.1 L 1109.863 1325.1 L 1147.895 1099.1 L 1149 1099.1 L 1149 1092.535 L 1262.44 418.438 L 1262.44 418.438 L 1450.137 1325.1 L 1450.137 1325.1 Z  M 845.385 1099.1 L 399 1099.1 L 399 1678.1 L 747.465 1678.1 L 807 1326.069 L 807 1325.1 L 807 1325.1 L 807.164 1325.1 L 845.385 1099.1 L 845.385 1099.1 L 845.385 1099.1 Z " fill-rule="evenodd" fill="rgb(255,255,255)"/></g></svg>