<?xml version="1.0" encoding="UTF-8"?>
<svg xmlns="http://www.w3.org/2000/svg" xmlns:xlink="http://www.w3.org/1999/xlink" width="512pt" height="512pt" viewBox="0 0 512 512" version="1.1">
<g id="surface1">
<path style=" stroke:none;fill-rule:nonzero;fill:rgb(0%,0%,0%);fill-opacity:1;" d="M 256 0 C 114.625 0 0 114.625 0 256 C 0 369.125 73.34375 465.0625 175.078125 498.90625 C 187.875 501.25 192.546875 493.34375 192.546875 486.59375 C 192.546875 480.5 192.3125 460.3125 192.1875 438.9375 C 121 454.40625 105.953125 408.75 105.953125 408.75 C 94.296875 379.1875 77.53125 371.3125 77.53125 371.3125 C 54.265625 355.4375 79.296875 355.75 79.296875 355.75 C 105 357.53125 118.53125 382.125 118.53125 382.125 C 141.375 421.25 178.46875 409.9375 193.03125 403.375 C 195.359375 386.875 201.984375 375.5625 209.28125 369.1875 C 152.453125 362.71875 92.671875 340.75 92.671875 242.65625 C 92.671875 214.6875 102.65625 191.875 119 173.953125 C 116.390625 167.453125 107.578125 141.40625 121.53125 106.171875 C 121.53125 106.171875 143 99.296875 191.9375 132.421875 C 212.34375 126.71875 234.234375 123.90625 256 123.8125 C 277.75 123.90625 299.65625 126.75 320.09375 132.453125 C 368.9375 99.296875 390.4375 106.203125 390.4375 106.203125 C 404.4375 141.46875 395.625 167.484375 393 173.953125 C 409.40625 191.875 419.3125 214.6875 419.3125 242.65625 C 419.3125 341 359.4375 362.65625 302.40625 369 C 311.625 376.9375 319.78125 392.5 319.78125 416.375 C 319.78125 450.59375 319.4375 478.1875 319.4375 486.625 C 319.4375 493.4375 324.09375 501.40625 337.0625 498.90625 C 438.71875 465 512 369.0625 512 256 C 512 114.625 397.375 0 256 0 Z M 256 0 "/>
</g>
</svg>
