<?xml version="1.0" encoding="UTF-8"?>
<svg xmlns="http://www.w3.org/2000/svg" xmlns:xlink="http://www.w3.org/1999/xlink" width="512pt" height="512pt" viewBox="0 0 512 512" version="1.1">
<g id="surface1">
<path style=" stroke:none;fill-rule:nonzero;fill:rgb(0%,0%,0%);fill-opacity:1;" d="M 512 256 C 512 397.386719 397.386719 512 256 512 C 114.613281 512 0 397.386719 0 256 C 0 114.613281 114.613281 0 256 0 C 397.386719 0 512 114.613281 512 256 Z M 512 256 "/>
<path style=" stroke:none;fill-rule:nonzero;fill:rgb(100%,100%,100%);fill-opacity:1;" d="M 210.722656 332.628906 C 210.722656 332.628906 197.539062 340.296875 220.105469 342.890625 C 247.445312 346.011719 261.417969 345.5625 291.546875 339.859375 C 291.546875 339.859375 299.464844 344.828125 310.527344 349.128906 C 242.988281 378.074219 157.675781 347.453125 210.722656 332.628906 "/>
<path style=" stroke:none;fill-rule:nonzero;fill:rgb(100%,100%,100%);fill-opacity:1;" d="M 202.472656 294.859375 C 202.472656 294.859375 187.683594 305.804688 210.265625 308.140625 C 239.472656 311.152344 262.535156 311.398438 302.441406 303.714844 C 302.441406 303.714844 307.960938 309.308594 316.640625 312.371094 C 234.984375 336.246094 144.035156 314.253906 202.472656 294.859375 "/>
<path style=" stroke:none;fill-rule:nonzero;fill:rgb(100%,100%,100%);fill-opacity:1;" d="M 272.042969 230.785156 C 288.6875 249.945312 267.671875 267.183594 267.671875 267.183594 C 267.671875 267.183594 309.925781 245.371094 290.519531 218.054688 C 272.398438 192.582031 258.496094 179.925781 333.742188 136.289062 C 333.742188 136.289062 215.632812 165.785156 272.042969 230.785156 "/>
<path style=" stroke:none;fill-rule:nonzero;fill:rgb(100%,100%,100%);fill-opacity:1;" d="M 361.367188 360.566406 C 361.367188 360.566406 371.125 368.605469 350.625 374.824219 C 311.640625 386.636719 188.371094 390.203125 154.125 375.296875 C 141.816406 369.941406 164.898438 362.511719 172.160156 360.949219 C 179.734375 359.308594 184.0625 359.613281 184.0625 359.613281 C 170.371094 349.96875 95.578125 378.550781 146.070312 386.734375 C 283.769531 409.066406 397.085938 376.679688 361.367188 360.566406 "/>
<path style=" stroke:none;fill-rule:nonzero;fill:rgb(100%,100%,100%);fill-opacity:1;" d="M 217.0625 255.722656 C 217.0625 255.722656 154.359375 270.613281 194.859375 276.023438 C 211.957031 278.3125 246.046875 277.792969 277.796875 275.132812 C 303.746094 272.945312 329.804688 268.289062 329.804688 268.289062 C 329.804688 268.289062 320.652344 272.210938 314.035156 276.730469 C 250.359375 293.476562 127.355469 285.683594 162.765625 268.554688 C 192.714844 254.078125 217.0625 255.722656 217.0625 255.722656 "/>
<path style=" stroke:none;fill-rule:nonzero;fill:rgb(100%,100%,100%);fill-opacity:1;" d="M 329.546875 318.59375 C 394.273438 284.960938 364.347656 252.636719 343.457031 256.992188 C 338.335938 258.058594 336.054688 258.980469 336.054688 258.980469 C 336.054688 258.980469 337.953125 256.003906 341.585938 254.714844 C 382.910156 240.1875 414.691406 297.566406 328.246094 320.289062 C 328.246094 320.289062 329.246094 319.394531 329.546875 318.59375 "/>
<path style=" stroke:none;fill-rule:nonzero;fill:rgb(100%,100%,100%);fill-opacity:1;" d="M 290.519531 65.824219 C 290.519531 65.824219 326.367188 101.679688 256.523438 156.824219 C 200.511719 201.054688 243.75 226.277344 256.5 255.089844 C 223.804688 225.59375 199.8125 199.625 215.90625 175.457031 C 239.535156 139.984375 304.984375 122.78125 290.519531 65.824219 "/>
<path style=" stroke:none;fill-rule:nonzero;fill:rgb(100%,100%,100%);fill-opacity:1;" d="M 223.425781 409.738281 C 285.554688 413.714844 380.964844 407.53125 383.222656 378.132812 C 383.222656 378.132812 378.878906 389.277344 331.875 398.128906 C 278.84375 408.109375 213.441406 406.941406 174.648438 400.546875 C 174.648438 400.546875 182.589844 407.121094 223.425781 409.738281 "/>
</g>
</svg>
