<?xml version="1.0" encoding="UTF-8"?>
<svg xmlns="http://www.w3.org/2000/svg" xmlns:xlink="http://www.w3.org/1999/xlink" width="512pt" height="512pt" viewBox="0 0 512 512" version="1.1">
<g id="surface1">
<path style=" stroke:none;fill-rule:nonzero;fill:rgb(0%,0%,0%);fill-opacity:1;" d="M 256 210.367188 C 230.796875 210.367188 210.367188 230.796875 210.367188 256 C 210.367188 281.203125 230.796875 301.632812 256 301.632812 C 281.203125 301.632812 301.632812 281.203125 301.632812 256 C 301.632812 230.796875 281.203125 210.367188 256 210.367188 Z M 128.171875 346.773438 L 118.101562 344.214844 C 43.050781 325.246094 0 293.054688 0 255.914062 C 0 218.773438 43.050781 186.582031 118.101562 167.617188 L 128.171875 165.078125 L 131.007812 175.0625 C 138.609375 201.253906 148.335938 226.78125 160.085938 251.390625 L 162.238281 255.9375 L 160.085938 260.480469 C 148.316406 285.082031 138.589844 310.613281 131.007812 336.8125 Z M 113.429688 190.933594 C 56.382812 206.953125 21.375 231.464844 21.375 255.914062 C 21.375 280.339844 56.382812 304.851562 113.429688 320.894531 C 120.40625 298.707031 128.828125 277 138.644531 255.914062 C 128.816406 234.832031 120.394531 213.125 113.429688 190.933594 Z M 383.828125 346.773438 L 380.992188 336.769531 C 373.398438 310.578125 363.664062 285.054688 351.894531 260.457031 L 349.738281 255.914062 L 351.894531 251.371094 C 363.660156 226.765625 373.390625 201.234375 380.992188 175.039062 L 383.828125 165.054688 L 393.921875 167.59375 C 468.949219 186.558594 512 218.753906 512 255.914062 C 512 293.078125 468.949219 325.246094 393.921875 344.214844 Z M 373.355469 255.914062 C 383.59375 278.078125 392.0625 299.863281 398.570312 320.894531 C 455.636719 304.851562 490.625 280.339844 490.625 255.914062 C 490.625 231.464844 455.617188 206.976562 398.570312 190.933594 C 391.605469 213.125 383.179688 234.832031 373.355469 255.914062 Z M 113.28125 190.828125 L 110.441406 180.863281 C 89.34375 106.496094 95.742188 53.207031 128 34.601562 C 159.636719 16.339844 210.433594 37.910156 263.660156 92.542969 L 270.910156 99.988281 L 263.660156 107.433594 C 244.746094 127.09375 227.464844 148.265625 211.988281 170.730469 L 209.109375 174.847656 L 204.097656 175.273438 C 176.871094 177.421875 149.867188 181.773438 123.347656 188.289062 Z M 153.726562 49.386719 C 148.011719 49.386719 142.953125 50.625 138.6875 53.078125 C 117.484375 65.300781 113.726562 107.796875 128.339844 165.140625 C 151.074219 160.082031 174.113281 156.511719 197.3125 154.453125 C 210.695312 135.421875 225.320312 117.292969 241.089844 100.179688 C 207.808594 67.777344 176.296875 49.386719 153.726562 49.386719 Z M 358.292969 483.777344 C 358.273438 483.777344 358.273438 483.777344 358.292969 483.777344 C 327.894531 483.777344 288.851562 460.886719 248.339844 419.285156 L 241.089844 411.839844 L 248.339844 404.394531 C 267.25 384.726562 284.523438 363.550781 299.988281 341.078125 L 302.871094 336.960938 L 307.863281 336.535156 C 335.097656 334.398438 362.117188 330.054688 388.652344 323.542969 L 398.71875 321.003906 L 401.578125 330.988281 C 422.632812 405.3125 416.257812 458.625 384 477.207031 C 376.164062 481.636719 367.292969 483.902344 358.292969 483.777344 Z M 270.910156 411.648438 C 304.191406 444.054688 335.703125 462.441406 358.273438 462.441406 L 358.292969 462.441406 C 363.988281 462.441406 369.066406 461.207031 373.3125 458.753906 C 394.515625 446.527344 398.292969 404.011719 383.660156 346.667969 C 360.917969 351.730469 337.871094 355.300781 314.667969 357.355469 C 301.296875 376.398438 286.679688 394.539062 270.910156 411.648438 Z M 398.71875 190.828125 L 388.652344 188.289062 C 362.121094 181.753906 335.101562 177.402344 307.863281 175.273438 L 302.871094 174.847656 L 299.988281 170.730469 C 284.53125 148.257812 267.257812 127.085938 248.339844 107.433594 L 241.089844 99.988281 L 248.339844 92.542969 C 301.546875 37.929688 352.320312 16.363281 384 34.601562 C 416.257812 53.207031 422.65625 106.496094 401.578125 180.84375 Z M 314.667969 154.453125 C 339.03125 156.671875 362.175781 160.277344 383.660156 165.140625 C 398.292969 107.796875 394.515625 65.300781 373.3125 53.078125 C 352.234375 40.894531 312.617188 59.5625 270.910156 100.179688 C 286.671875 117.292969 301.289062 135.421875 314.667969 154.453125 Z M 153.726562 483.777344 C 144.722656 483.90625 135.839844 481.640625 128 477.207031 C 95.742188 458.625 89.34375 405.332031 110.441406 330.988281 L 113.257812 321.003906 L 123.328125 323.542969 C 147.96875 329.75 175.148438 334.121094 204.074219 336.535156 L 209.089844 336.960938 L 211.945312 341.078125 C 227.425781 363.546875 244.707031 384.722656 263.617188 404.394531 L 270.871094 411.839844 L 263.617188 419.285156 C 223.125 460.886719 184.085938 483.777344 153.726562 483.777344 Z M 128.339844 346.667969 C 113.707031 404.011719 117.484375 446.527344 138.6875 458.753906 C 159.742188 470.761719 199.339844 452.246094 241.089844 411.648438 C 225.328125 394.523438 210.703125 376.386719 197.3125 357.355469 C 174.113281 355.304688 151.074219 351.734375 128.339844 346.667969 Z M 256 360.0625 C 238.441406 360.0625 220.394531 359.296875 202.324219 357.800781 L 197.3125 357.375 L 194.433594 353.257812 C 184.210938 338.574219 174.601562 323.46875 165.632812 307.988281 C 156.6875 292.496094 148.390625 276.640625 140.757812 260.457031 L 138.625 255.914062 L 140.757812 251.371094 C 148.386719 235.191406 156.6875 219.332031 165.632812 203.839844 C 174.464844 188.566406 184.171875 173.332031 194.433594 158.570312 L 197.3125 154.453125 L 202.324219 154.027344 C 238.050781 150.996094 273.96875 150.996094 309.695312 154.027344 L 314.6875 154.453125 L 317.546875 158.570312 C 338.007812 187.949219 355.96875 218.988281 371.242188 251.371094 L 373.398438 255.914062 L 371.242188 260.457031 C 356.007812 292.859375 338.042969 323.902344 317.546875 353.257812 L 314.6875 357.375 L 309.695312 357.800781 C 291.625 359.296875 273.558594 360.0625 256 360.0625 Z M 209.128906 336.9375 C 240.703125 339.308594 271.296875 339.308594 302.890625 336.9375 C 320.53125 311.152344 336.191406 284.066406 349.738281 255.914062 C 336.214844 227.746094 320.546875 200.65625 302.871094 174.890625 C 271.667969 172.523438 240.332031 172.523438 209.128906 174.890625 C 191.445312 200.652344 175.777344 227.742188 162.261719 255.914062 C 175.824219 284.0625 191.492188 311.148438 209.128906 336.9375 Z M 209.128906 336.9375 "/>
</g>
</svg>
