<?xml version="1.0" encoding="UTF-8" standalone="no"?>
<!DOCTYPE svg PUBLIC "-//W3C//DTD SVG 1.1//EN" "http://www.w3.org/Graphics/SVG/1.1/DTD/svg11.dtd">
<svg version="1.1" xmlns="http://www.w3.org/2000/svg" xmlns:xlink="http://www.w3.org/1999/xlink" preserveAspectRatio="xMidYMid meet" viewBox="0 0 1920 1080" width="1920" height="1080"><defs><path d="M1529.7 480.98L1565.8 517.08L856.3 1226.58L820.2 1190.48L1529.7 480.98Z" id="i2zHOOgMAI"></path><path d="M1511.7 606.73L1547.8 642.83L838.3 1352.33L802.2 1316.23L1511.7 606.73Z" id="bDeo35UaG"></path><path d="M1589.7 634.48L1625.8 670.58L916.3 1380.08L880.2 1343.98L1589.7 634.48Z" id="f4C3Z3jzaH"></path><path d="M1847.7 480.98L1883.8 517.08L1174.3 1226.58L1138.2 1190.48L1847.7 480.98Z" id="ebE4i7dBc"></path><path d="M1564.7 864.73L1600.8 900.83L891.3 1610.33L855.2 1574.23L1564.7 864.73Z" id="aOMJ5Oh5u"></path><path d="M1820.7 706.48L1856.8 742.58L955.3 1644.08L919.2 1607.98L1820.7 706.48Z" id="d3Mu6s54aw"></path><path d="M1740.7 889.78L1776.8 925.88L1007.3 1695.38L971.2 1659.28L1740.7 889.78Z" id="eOZNXAEqe"></path><path d="M1830.7 897.53L1866.8 933.63L1097.3 1703.13L1061.2 1667.03L1830.7 897.53Z" id="cR927e6Fu"></path><path d="M2016.7 809.53L2052.8 845.63L1143.3 1755.13L1107.2 1719.03L2016.7 809.53Z" id="a1yMHrRsLc"></path></defs><g><g><g><use xlink:href="#i2zHOOgMAI" opacity="1" fill="#9146ff" fill-opacity="1"></use></g><g><use xlink:href="#bDeo35UaG" opacity="1" fill="#9146ff" fill-opacity="1"></use></g><g><use xlink:href="#f4C3Z3jzaH" opacity="1" fill="#9146ff" fill-opacity="1"></use></g><g><use xlink:href="#ebE4i7dBc" opacity="1" fill="#9146ff" fill-opacity="1"></use></g><g><use xlink:href="#aOMJ5Oh5u" opacity="1" fill="#9146ff" fill-opacity="1"></use></g><g><use xlink:href="#d3Mu6s54aw" opacity="1" fill="#9146ff" fill-opacity="1"></use></g><g><use xlink:href="#eOZNXAEqe" opacity="1" fill="#9146ff" fill-opacity="1"></use></g><g><use xlink:href="#cR927e6Fu" opacity="1" fill="#9146ff" fill-opacity="1"></use></g><g><use xlink:href="#a1yMHrRsLc" opacity="1" fill="#9146ff" fill-opacity="1"></use></g></g></g></svg>